<?xml version="1.0" encoding="UTF-8"?>
<svg id="Layer_1" data-name="Layer 1" xmlns="http://www.w3.org/2000/svg" viewBox="0 0 1920 1080">
  <defs>
    <style>
      .cls-1, .cls-2 {
        fill: #fff;
      }

      .cls-3 {
        fill: none;
        stroke: #fff;
        stroke-miterlimit: 10;
        stroke-width: 5px;
      }

      .cls-4 {
        fill: #ff641f;
      }

      .cls-5 {
        letter-spacing: -.07em;
      }

      .cls-2 {
        font-family: Couture-Bold, Couture;
        font-size: 37.86px;
        font-weight: 700;
      }
    </style>
  </defs>
  <rect class="cls-4" width="1920" height="1080"/>
  <g>
    <path class="cls-1" d="M1073.58,249.4c0,1.09.02,2.18.02,3.28,0,57.07,0,114.15,0,171.22v2.74c.5.08.88.18,1.26.2.54.03,1.09.01,1.64.01,57.32,0,114.64,0,171.95,0,.75,0,1.5-.02,2.25-.03v226.17c-58.95,0-117.91,0-176.97,0-.06.58-.12.97-.13,1.36-.02.68,0,1.37,0,2.05,0,57.09,0,114.17,0,171.26,0,.87-.04,1.75-.06,2.72-.52.08-.9.17-1.29.18-.61.03-1.23.01-1.84.01-73.32,0-146.64,0-219.96,0-.95,0-1.91.16-2.93-.22-.06-.36-.17-.74-.19-1.13-.03-.68-.01-1.37-.01-2.05,0-57.02,0-114.03,0-171.05v-2.93c-.52-.08-.91-.17-1.3-.18-.68-.03-1.37,0-2.05,0-56.85,0-113.71,0-170.56,0-1.37,0-2.73,0-4.1,0v-226.17c1.09.01,2.18.03,3.28.03,57.26,0,114.53,0,171.79,0h2.74c.08-.51.16-.89.18-1.27.03-.54,0-1.09,0-1.64,0-57.5,0-114.99,0-172.49,0-.68-.03-1.36-.05-2.04,75.44,0,150.89,0,226.33,0ZM851.71,825.82c2.06.27,210.15.43,216.32.19.33-.01.65-.08,1.03-.13.27-1.02.16-1.98.16-2.92,0-56.95,0-113.9,0-170.85,0-.75-.03-1.5.02-2.25.02-.38.17-.76.28-1.26h2.72c56.99,0,113.98,0,170.97,0,.75,0,1.5.02,2.25-.01.39-.02.77-.13,1.26-.21.01-1.03.04-1.98.04-2.93,0-70.33,0-140.67,0-211,0-.61.01-1.23-.01-1.84-.01-.39-.08-.78-.13-1.23-1.06-.19-2.01-.12-2.95-.12-56.99,0-113.98,0-170.97,0-.68,0-1.37.01-2.05,0-.39-.01-.78-.08-1.18-.12-.41-1.01-.24-1.98-.24-2.91-.01-56.95,0-113.9,0-170.85,0-.75.02-1.5-.01-2.25-.02-.38-.12-.76-.19-1.16-.39-.04-.65-.1-.92-.1-71.95.01-143.9.03-215.86.05-.07,0-.14.02-.19.05-.06.03-.1.09-.3.27-.02.73-.05,1.61-.05,2.48,0,57.09,0,114.17,0,171.26,0,.68.03,1.37-.01,2.05-.02.38-.16.76-.26,1.24-.97,0-1.85,0-2.74,0-56.99,0-113.98,0-170.97,0-.75,0-1.5-.02-2.25.01-.39.01-.77.11-1.12.16-.25,1.97-.41,209.34-.17,216.01.01.33.08.65.13,1.01,1.03.27,1.98.16,2.92.16,56.99,0,113.98,0,170.97,0,.75,0,1.5-.02,2.25.02.39.02.77.16,1.26.27v137.51c0,6.56,0,13.11,0,19.67,0,6.54,0,13.09,0,19.75Z"/>
    <path class="cls-1" d="M1138.2,332.38c-.14-21.08,16.84-39.86,39.89-39.84,23.03.03,39.88,18.82,39.83,39.93-.05,21.09-16.93,39.7-39.82,39.73-22.95.03-40.03-18.66-39.9-39.83Z"/>
    <path class="cls-1" d="M727.86,630.47c-.34-2.47-.51-167.89-.21-179.7,0-.4.08-.79.13-1.29,2.18-.23,4.29-.08,6.39-.11,2.19-.03,4.37,0,6.56,0h116.03c2.19,0,4.37,0,6.56,0,2.1,0,4.2.02,6.43-.02.16-1.59.07-3.01.09-4.43.01-1.43,0-2.87,0-4.3v-47.32c0-1.43,0-2.87,0-4.3v-72.93c0-1.43-.01-2.87,0-4.3.01-1.42-.07-2.84.07-4.15.28-.15.39-.27.51-.27,59.79-.03,119.58-.05,179.37-.06.33,0,.66.06,1.11.1.06.46.14.84.16,1.23.02.68,0,1.37,0,2.05,0,45.27,0,90.55,0,135.82,0,.88.02,1.75.04,2.74.5.06.89.13,1.28.15.68.02,1.37,0,2.05,0,45.3,0,90.61,0,135.91,0,.88,0,1.76.02,2.73.03.07.49.16.88.18,1.26.03.54,0,1.09,0,1.64,0,58.45,0,116.9,0,175.36v2.55c-.44.1-.82.23-1.2.25-.68.04-1.37.01-2.05.01-45.37,0-90.75,0-136.12,0-.87,0-1.76-.09-2.73.14-.04.45-.09.85-.1,1.24-.02.68,0,1.37,0,2.05,0,45.27,0,90.55,0,135.82,0,.87.11,1.76-.11,2.52-.15.13-.19.18-.25.22-.06.03-.12.06-.19.06-.48.02-.95.06-1.43.06-59.52,0-119.04-.02-178.55-.04-.13,0-.25-.08-.51-.17-.05-.32-.15-.7-.17-1.09-.03-.68-.01-1.37-.01-2.05,0-45.27,0-90.55,0-135.82,0-.88,0-1.76,0-2.73-.5-.08-.88-.18-1.27-.2-.61-.03-1.23,0-1.84,0-45.37,0-90.75,0-136.12,0h-2.74ZM1047.74,627.01h3.08c45.17,0,90.34,0,135.51,0,.75,0,1.5.01,2.25-.02.33-.01.65-.12,1.01-.19.05-.39.14-.73.14-1.06-.01-57.43-.03-114.86-.06-172.28,0-.12-.12-.23-.24-.46-.85-.22-1.81-.11-2.74-.11-45.24,0-90.48,0-135.71,0-.68,0-1.37.02-2.05-.01-.38-.02-.76-.14-1.07-.2-.08-.18-.11-.25-.13-.31-.02-.06-.04-.13-.05-.2-.01-.07-.02-.14-.02-.2,0-.07,0-.14,0-.2,0-.07,0-.14,0-.2,0-.07,0-.14,0-.2,0-.07,0-.14,0-.2,0-.14,0-.27,0-.41,0-.07,0-.14,0-.2,0-45.68,0-91.37,0-137.05,0-.14,0-.27,0-.41,0-.07,0-.14,0-.2,0-.14,0-.27,0-.41,0-.07,0-.14,0-.2,0-.07,0-.14,0-.2,0-.07,0-.14,0-.2,0-.07,0-.14-.01-.2,0-.07-.02-.14-.03-.2-.01-.07-.03-.13-.06-.19-.03-.06-.08-.11-.19-.27-.76-.28-1.65-.14-2.52-.14-56.17,0-112.34,0-168.52,0-.55,0-1.09-.02-1.64.01-.39.02-.77.13-1.1.18-.06.18-.08.24-.1.3-.02.07-.03.13-.04.2,0,.07-.01.14-.02.2,0,.07,0,.14-.01.2,0,.14,0,.27,0,.41,0,.07,0,.14,0,.2,0,.07,0,.14,0,.2,0,45.96,0,91.91,0,137.87,0,.07,0,.14,0,.2,0,.07,0,.14,0,.2,0,.14,0,.27,0,.41,0,.07,0,.14,0,.2,0,.07,0,.14,0,.2,0,.07,0,.14-.01.2,0,.07-.02.13-.03.2-.02.07-.03.14-.06.2-.03.06-.08.11-.22.29-.73.29-1.62.14-2.49.14-45.31,0-90.61,0-135.92,0-.75,0-1.5,0-2.25.01-.32,0-.65.09-.96.13-.09.29-.19.48-.19.67-.01,57.43-.02,114.86-.01,172.29,0,.26.09.52.13.79.96.43,1.93.23,2.87.23,45.24.01,90.48,0,135.71.01.75,0,1.5-.01,2.25.02.33.01.65.11.98.17.38.92.22,1.81.22,2.68,0,45.21,0,90.41,0,135.62,0,.75-.02,1.5.01,2.25.02.39.12.77.2,1.25,1.05.01,2,.03,2.94.03,55.97,0,111.93,0,167.9,0,.62,0,1.23.02,1.84,0,.39-.02.78-.1,1.34-.18.04-2.86.01-5.65.02-8.44,0-2.73,0-5.46,0-8.19v-108.37c0-2.73-.02-5.46,0-8.19.02-2.78-.11-5.57.11-8.63Z"/>
    <path class="cls-1" d="M882.22,618.12c-6.21-.07-12.15-.02-18.08-.03-5.88,0-11.75,0-17.63,0h-71.14c-5.94,0-11.88,0-17.9,0-.12-.47-.25-.85-.29-1.23-.05-.54-.02-1.09-.02-1.64,0-50.19,0-100.38,0-150.57,0-.87-.12-1.76.2-2.72.42-.05.81-.13,1.2-.15.68-.02,1.37,0,2.05,0,39.57,0,79.13,0,118.7,0,.88,0,1.75-.03,2.73-.05.08-.5.17-.88.19-1.26.03-.75.01-1.5.01-2.25,0-39.54,0-79.08,0-118.62,0-.87-.16-1.77.24-2.66.29-.05.55-.14.81-.14,51.53,0,103.05,0,154.58.02.19,0,.37.12.68.22.25,2.43.07,4.87.11,7.31.03,2.46,0,4.92,0,7.38v95.06c0,2.46,0,4.92,0,7.38,0,2.45-.01,4.89.01,7.45.53.07.92.16,1.3.17.75.02,1.5.01,2.25.01,39.57,0,79.13,0,118.7,0,.87,0,1.77-.17,2.66.23.05.29.13.55.13.81,0,51.49,0,102.98-.01,154.47,0,.19-.11.38-.21.68-.38.04-.77.11-1.16.12-.68.02-1.37,0-2.05,0-39.57,0-79.13,0-118.7,0-.88,0-1.76.02-2.73.03-.08.49-.17.87-.19,1.26-.03.68-.01,1.37-.01,2.05,0,39.54,0,79.08,0,118.62v2.74c-.46.11-.84.24-1.22.27-.54.04-1.09.01-1.64.01-50.23,0-100.45,0-150.68,0-.87,0-1.76.12-2.69-.17-.06-.36-.16-.68-.17-1.01-.03-.68-.01-1.37-.01-2.05,0-39.54,0-79.08,0-118.62,0-.95-.02-1.89-.03-3.11Z"/>
  </g>
  <rect class="cls-3" x="725.62" y="985.94" width="468.77" height="52.09" rx="26.04" ry="26.04"/>
  <text class="cls-2" transform="translate(864.58 1027.26)"><tspan x="0" y="0">CON</tspan><tspan class="cls-5" x="85.57" y="0">T</tspan><tspan x="107.5" y="0">ACT</tspan></text>
</svg>