<?xml version="1.0" encoding="UTF-8"?>
<svg id="Layer_2" xmlns="http://www.w3.org/2000/svg" viewBox="0 0 798.27 797.98">
  <defs>
    <style>
      .cls-1 {
        fill: #fff;
      }
    </style>
  </defs>
  <g id="Layer_1-2" data-name="Layer_1">
    <g>
      <path class="cls-1" d="M555.07,0c0,1.5.02,3,.02,4.5,0,78.36,0,156.72,0,235.08v3.76c.69.11,1.21.24,1.74.28.75.04,1.5.01,2.25.01,78.7,0,157.4,0,236.09,0,1.03,0,2.06-.03,3.09-.04v310.53c-80.94,0-161.89,0-242.98,0-.08.79-.17,1.33-.18,1.86-.03.94-.01,1.87-.01,2.81,0,78.38,0,156.76,0,235.14,0,1.2-.05,2.4-.08,3.74-.71.11-1.24.23-1.77.25-.84.04-1.69.02-2.53.02-100.67,0-201.34,0-302.01-.01-1.3,0-2.63.22-4.03-.3-.09-.49-.24-1.02-.26-1.56-.05-.94-.02-1.87-.02-2.81,0-78.28,0-156.57,0-234.85v-4.02c-.72-.11-1.25-.23-1.78-.25-.94-.04-1.88-.01-2.81-.01-78.06,0-156.12,0-234.18,0-1.88,0-3.75,0-5.63,0V243.59c1.5.01,3,.04,4.5.04,78.62,0,157.24,0,235.87,0h3.76c.1-.7.22-1.22.25-1.75.04-.75.01-1.5.01-2.25,0-78.94,0-157.88,0-236.83,0-.94-.05-1.87-.07-2.81,103.58,0,207.17,0,310.75,0ZM250.45,791.41c2.83.37,288.53.58,297.01.27.45-.02.89-.11,1.42-.17.37-1.41.22-2.72.22-4,0-78.19,0-156.38,0-234.57,0-1.03-.03-2.06.02-3.09.03-.53.23-1.05.39-1.73h3.73c78.25,0,156.49,0,234.74,0,1.03,0,2.07.03,3.1-.02.53-.02,1.06-.17,1.73-.29.02-1.42.05-2.72.05-4.02,0-96.57,0-193.13,0-289.7,0-.84.02-1.69-.01-2.53-.02-.53-.11-1.07-.18-1.7-1.45-.26-2.75-.17-4.05-.17-78.25,0-156.49,0-234.74,0-.94,0-1.88.02-2.81,0-.54-.02-1.08-.1-1.63-.16-.57-1.39-.33-2.71-.33-4-.01-78.19-.01-156.38-.01-234.57,0-1.03.02-2.06-.02-3.09-.02-.53-.17-1.05-.26-1.6-.53-.06-.89-.14-1.26-.14-98.79.02-197.58.05-296.37.07-.09,0-.19.03-.27.07-.08.04-.14.12-.41.38-.02,1.01-.07,2.21-.07,3.4,0,78.38,0,156.76,0,235.13,0,.94.04,1.88-.02,2.81-.03.53-.21,1.04-.36,1.7-1.33,0-2.54,0-3.76,0-78.25,0-156.49,0-234.74,0-1.03,0-2.06-.02-3.1.02-.53.02-1.06.14-1.54.22-.35,2.7-.56,287.43-.24,296.58.02.45.11.89.18,1.39,1.41.38,2.72.22,4.01.22,78.25,0,156.49,0,234.74,0,1.03,0,2.07-.03,3.1.02.53.03,1.06.22,1.73.37v188.8c0,9,0,18,0,27,0,8.98-.01,17.97,0,27.11Z"/>
      <path class="cls-1" d="M643.8,113.93c-.19-28.95,23.12-54.73,54.77-54.7,31.62.04,54.76,25.83,54.69,54.82-.07,28.95-23.24,54.51-54.68,54.55-31.52.05-54.97-25.61-54.78-54.68Z"/>
      <path class="cls-1" d="M80.41,523.2c-.47-3.4-.7-230.51-.29-246.72.01-.54.1-1.09.17-1.77,3-.31,5.89-.11,8.77-.14,3-.04,6,0,9.01,0h159.31c3,0,6,0,9.01,0,2.88,0,5.77.03,8.83-.03.22-2.18.1-4.13.12-6.08.02-1.97,0-3.94,0-5.91v-64.97c0-1.97,0-3.94,0-5.91v-100.13c0-1.97-.01-3.94,0-5.91.02-1.94-.1-3.9.1-5.7.38-.2.54-.36.7-.36,82.09-.04,164.18-.07,246.27-.09.45,0,.91.08,1.52.13.08.63.19,1.15.21,1.69.03.94.01,1.87.01,2.81,0,62.16,0,124.32,0,186.48,0,1.2.03,2.4.05,3.76.69.08,1.22.18,1.75.2.94.03,1.88.01,2.81.01,62.2,0,124.41,0,186.61,0,1.21,0,2.41.02,3.75.04.1.68.22,1.2.25,1.74.04.75.01,1.5.01,2.25,0,80.25,0,160.51,0,240.76v3.5c-.61.13-1.12.31-1.64.34-.94.05-1.88.02-2.81.02-62.3,0-124.59,0-186.89,0-1.2,0-2.41-.12-3.75.19-.05.62-.13,1.16-.14,1.7-.02.94,0,1.87,0,2.81,0,62.16,0,124.32,0,186.48,0,1.2.15,2.42-.15,3.47-.2.18-.27.25-.35.3-.08.04-.17.08-.26.09-.65.03-1.31.08-1.96.08-81.72-.01-163.43-.03-245.15-.05-.17,0-.34-.11-.7-.24-.07-.44-.21-.96-.23-1.49-.04-.94-.02-1.87-.02-2.81,0-62.16,0-124.32,0-186.48,0-1.21,0-2.42,0-3.75-.68-.11-1.21-.25-1.74-.28-.84-.04-1.69-.01-2.53-.01-62.3,0-124.59,0-186.89,0h-3.76ZM519.6,518.46h4.23c62.02,0,124.04,0,186.05,0,1.03,0,2.07.02,3.1-.02.45-.02.89-.17,1.38-.27.07-.54.19-1,.19-1.46-.02-78.85-.05-157.7-.08-236.55,0-.16-.16-.32-.34-.63-1.17-.3-2.48-.15-3.77-.15-62.11,0-124.22,0-186.34,0-.94,0-1.88.03-2.81-.02-.53-.03-1.05-.2-1.47-.28-.11-.25-.15-.34-.18-.43-.03-.09-.05-.18-.07-.27-.02-.09-.02-.19-.03-.28,0-.09,0-.19-.01-.28,0-.09,0-.19,0-.28,0-.09,0-.19,0-.28,0-.09,0-.19,0-.28,0-.19,0-.38,0-.56,0-.09,0-.19,0-.28,0-62.72,0-125.45,0-188.17,0-.19,0-.38,0-.56,0-.09,0-.19,0-.28,0-.19,0-.38,0-.56,0-.09,0-.19,0-.28,0-.09,0-.19,0-.28,0-.09,0-.19,0-.28,0-.09,0-.19-.02-.28,0-.09-.02-.19-.04-.28-.02-.09-.04-.18-.08-.26-.04-.08-.11-.15-.26-.37-1.05-.38-2.27-.19-3.46-.19-77.12,0-154.25,0-231.37,0-.75,0-1.5-.03-2.25.02-.53.03-1.06.17-1.51.25-.08.24-.12.33-.14.42-.02.09-.05.18-.06.27-.01.09-.02.19-.02.28,0,.09-.01.19-.01.28,0,.19,0,.37,0,.56,0,.09,0,.19,0,.28,0,.09,0,.19,0,.28,0,63.1,0,126.2,0,189.3,0,.09,0,.19,0,.28,0,.09,0,.19,0,.28,0,.19,0,.38,0,.56,0,.09,0,.19,0,.28,0,.09,0,.19,0,.28,0,.09,0,.19-.02.28-.01.09-.03.18-.05.28-.02.09-.04.19-.08.27-.04.08-.11.14-.31.4-1,.39-2.22.2-3.42.2-62.21,0-124.41,0-186.62,0-1.03,0-2.06-.01-3.1.02-.45.01-.89.12-1.32.18-.12.39-.26.65-.26.91-.02,78.85-.02,157.7-.02,236.55,0,.36.12.72.18,1.09,1.31.59,2.65.32,3.93.32,62.11.02,124.22.01,186.34.01,1.03,0,2.06-.02,3.1.02.45.02.89.15,1.35.23.51,1.26.3,2.49.3,3.68.01,62.07,0,124.14,0,186.2,0,1.03-.02,2.06.02,3.09.02.53.16,1.05.27,1.72,1.44.01,2.74.04,4.04.04,76.84,0,153.68,0,230.53,0,.84,0,1.69.02,2.53-.01.54-.02,1.07-.14,1.84-.25.05-3.93.02-7.76.02-11.58,0-3.75,0-7.5,0-11.25v-148.79c0-3.75-.03-7.5,0-11.25.03-3.82-.15-7.65.16-11.85Z"/>
      <path class="cls-1" d="M292.34,506.25c-8.53-.09-16.68-.03-24.82-.04-8.07-.01-16.14,0-24.21,0h-97.67c-8.16,0-16.31,0-24.58,0-.16-.65-.35-1.16-.4-1.69-.06-.74-.02-1.5-.02-2.25,0-68.91,0-137.83,0-206.74,0-1.19-.17-2.42.27-3.74.58-.07,1.11-.18,1.65-.2.94-.03,1.88-.01,2.81-.01,54.32,0,108.65,0,162.97,0,1.2,0,2.41-.04,3.75-.06.11-.68.24-1.21.26-1.74.04-1.03.02-2.06.02-3.09,0-54.29,0-108.57,0-162.86,0-1.19-.22-2.42.32-3.65.4-.07.75-.2,1.11-.2,70.74,0,141.49,0,212.23.02.26,0,.51.16.93.3.34,3.33.1,6.69.15,10.04.04,3.37,0,6.75,0,10.13v130.51c0,3.38,0,6.75,0,10.13,0,3.36-.02,6.72.02,10.22.73.1,1.26.21,1.79.23,1.03.03,2.06.02,3.1.02,54.32,0,108.65,0,162.97.01,1.19,0,2.43-.23,3.65.32.07.39.18.75.18,1.11,0,70.69,0,141.39-.02,212.08,0,.26-.15.52-.28.93-.52.06-1.06.15-1.6.16-.94.03-1.88.01-2.81.01-54.32,0-108.65,0-162.97,0-1.21,0-2.41.03-3.75.05-.1.67-.23,1.2-.26,1.73-.04.94-.01,1.87-.01,2.81,0,54.29,0,108.57,0,162.86v3.76c-.64.15-1.15.33-1.68.37-.75.06-1.5.02-2.25.02-68.96,0-137.92,0-206.88,0-1.2,0-2.41.17-3.69-.23-.09-.49-.22-.94-.23-1.39-.04-.94-.02-1.87-.02-2.81,0-54.29,0-108.57,0-162.86,0-1.3-.03-2.6-.05-4.27Z"/>
    </g>
  </g>
</svg>